<svg width="78" height="59" viewBox="0 0 78 59" fill="none" xmlns="http://www.w3.org/2000/svg">
<path d="M58.6875 0.765625H19.3125C14.2792 0.771208 9.45374 2.77314 5.89469 6.33219C2.33564 9.89124 0.333708 14.7167 0.328125 19.75V53.5C0.328125 54.8054 0.846678 56.0573 1.76971 56.9803C2.69274 57.9033 3.94464 58.4219 5.25 58.4219H72.75C74.0554 58.4219 75.3073 57.9033 76.2303 56.9803C77.1533 56.0573 77.6719 54.8054 77.6719 53.5V19.75C77.6663 14.7167 75.6644 9.89124 72.1053 6.33219C68.5463 2.77314 63.7208 0.771208 58.6875 0.765625ZM73.4531 19.75V23.2656H60.7969V5.13906C64.309 5.64968 67.5202 7.40677 69.8439 10.0894C72.1676 12.7719 73.4487 16.2009 73.4531 19.75ZM42.5156 34.5156H35.4844V21.8594H42.5156V34.5156ZM33.375 38.7344H44.625C45.1844 38.7344 45.721 38.5121 46.1166 38.1166C46.5121 37.721 46.7344 37.1844 46.7344 36.625V27.4844H56.5781V54.2031H21.4219V27.4844H31.2656V36.625C31.2656 37.1844 31.4879 37.721 31.8834 38.1166C32.279 38.5121 32.8156 38.7344 33.375 38.7344ZM46.7344 23.2656V19.75C46.7344 19.1906 46.5121 18.654 46.1166 18.2584C45.721 17.8629 45.1844 17.6406 44.625 17.6406H33.375C32.8156 17.6406 32.279 17.8629 31.8834 18.2584C31.4879 18.654 31.2656 19.1906 31.2656 19.75V23.2656H21.4219V4.98438H56.5781V23.2656H46.7344ZM17.2031 5.13906V23.2656H4.54688V19.75C4.55131 16.2009 5.83238 12.7719 8.15608 10.0894C10.4798 7.40677 13.691 5.64968 17.2031 5.13906ZM4.54688 53.5V27.4844H17.2031V54.2031H5.25C5.06352 54.2031 4.88468 54.129 4.75282 53.9972C4.62095 53.8653 4.54688 53.6865 4.54688 53.5ZM72.75 54.2031H60.7969V27.4844H73.4531V53.5C73.4531 53.6865 73.379 53.8653 73.2472 53.9972C73.1153 54.129 72.9365 54.2031 72.75 54.2031Z" fill="#D4D5D6"/>
</svg>
