<svg width="75" height="76" viewBox="0 0 75 76" fill="none" xmlns="http://www.w3.org/2000/svg">
<path d="M0.0796875 39.5656C0.909375 59.5133 17.3508 75.5 37.5 75.5C57.6492 75.5 74.0906 59.5133 74.9203 39.5656C74.9693 39.4399 74.9963 39.3067 75 39.1719C75 39.0875 74.9695 39.0148 74.9531 38.9375C74.9602 38.6234 75 38.3164 75 38C75 17.3234 58.1766 0.5 37.5 0.5C16.8234 0.5 0 17.3234 0 38C0 38.3164 0.0398437 38.6234 0.046875 38.9375C0.0304687 39.0148 0 39.0875 0 39.1719C0 39.3125 0.0351563 39.4414 0.0796875 39.5656ZM58.4086 53.8016C55.2235 52.4808 51.914 51.4828 48.5297 50.8227C48.9 47.4172 49.118 43.8805 49.1859 40.3461H60.8578C60.6445 45.1602 59.7891 49.7047 58.4086 53.8016ZM63.1992 40.3438H72.5367C72.1217 46.7246 69.9628 52.869 66.2953 58.107C64.4736 56.8229 62.5473 55.694 60.5367 54.732C62.0484 50.3516 62.9789 45.4906 63.1992 40.3438ZM29.0367 52.7328C31.8363 52.291 34.6658 52.0669 37.5 52.0625C40.3688 52.0625 43.2023 52.3016 45.9609 52.7328C44.3344 65.2367 40.7812 73.1562 37.5 73.1562C34.2188 73.1562 30.6656 65.2367 29.0367 52.7328ZM32.5969 72.3688C26.1492 70.3016 20.6953 64.2336 17.4047 56C20.4195 54.7412 23.5521 53.7857 26.7563 53.1477C27.832 61.3414 29.7984 68.4805 32.5969 72.3688ZM28.7672 25.5992C31.6564 26.0495 34.5759 26.2775 37.5 26.2812C40.4241 26.2775 43.3436 26.0495 46.2328 25.5992C46.6359 29.3961 46.875 33.5398 46.875 38H28.125C28.125 33.5398 28.3641 29.3961 28.7672 25.5992ZM46.8398 40.3438C46.7839 43.7034 46.5806 47.059 46.2305 50.4008C43.342 49.9506 40.4233 49.7226 37.5 49.7188C34.5759 49.7225 31.6564 49.9505 28.7672 50.4008C28.417 47.059 28.2137 43.7034 28.1578 40.3438H46.8398ZM48.2461 53.1477C51.5367 53.8086 54.675 54.7695 57.5977 56C54.307 64.2336 48.8531 70.3016 42.4055 72.3688C45.2016 68.4805 47.168 61.3414 48.2461 53.1477ZM49.2188 38C49.2188 33.6969 48.9797 29.3375 48.5297 25.1797C51.9984 24.4953 55.3172 23.4922 58.4086 22.2008C60.0117 26.9562 60.9375 32.3141 60.9375 38H49.2188ZM48.2461 22.8523C47.168 14.6586 45.2039 7.51719 42.4031 3.63125C48.8508 5.69844 54.3047 11.7664 57.5953 20C54.5823 21.2616 51.4502 22.2172 48.2461 22.8523ZM45.9633 23.2672C43.2023 23.6984 40.3688 23.9375 37.5 23.9375C34.6312 23.9375 31.7977 23.6984 29.0367 23.2672C30.6656 10.7633 34.2188 2.84375 37.5 2.84375C40.7812 2.84375 44.3344 10.7633 45.9633 23.2672ZM26.7539 22.8523C23.5498 22.2143 20.4171 21.2588 17.4023 20C20.693 11.7664 26.1469 5.69844 32.5945 3.63125C29.7984 7.51953 27.832 14.6586 26.7539 22.8523ZM26.4703 25.1797C26.0111 29.4377 25.7811 33.7173 25.7812 38H14.0625C14.0625 32.3141 14.9883 26.9563 16.5914 22.1984C19.6828 23.4922 23.0016 24.493 26.4703 25.1797ZM25.8141 40.3438C25.882 43.8781 26.1 47.4148 26.4703 50.8227C23.0016 51.507 19.6828 52.5102 16.5914 53.8016C15.2109 49.7047 14.3555 45.1602 14.1422 40.3438H25.8141ZM14.4609 54.732C12.4512 55.6941 10.5257 56.8231 8.70469 58.107C5.03719 52.869 2.87825 46.7246 2.46328 40.3438H11.8008C12.0211 45.4906 12.9516 50.3516 14.4609 54.732ZM10.1086 59.9844C11.7482 58.8281 13.478 57.8053 15.2812 56.9258C17.6344 62.75 21.0211 67.5852 25.0922 70.8547C19.219 68.6298 14.0463 64.8771 10.1086 59.9844ZM49.9078 70.8523C53.9813 67.5852 57.3656 62.7477 59.7188 56.9234C61.5703 57.8234 63.2859 58.8594 64.8914 59.982C60.9553 64.8764 55.7821 68.6295 49.9078 70.8523ZM63.2812 38C63.2812 31.9836 62.2781 26.3117 60.5391 21.268C62.6016 20.2789 64.5188 19.1422 66.2977 17.893C70.4386 23.7799 72.6594 30.8025 72.6562 38H63.2812ZM64.8938 16.0156C63.2883 17.1383 61.5727 18.1742 59.7211 19.0742C57.368 13.25 53.9813 8.4125 49.9102 5.14531C55.7828 7.37121 60.9552 11.1237 64.8938 16.0156ZM25.0922 5.14766C21.0188 8.41484 17.6344 13.2523 15.2812 19.0766C13.4779 18.1963 11.7481 17.1727 10.1086 16.0156C14.0458 11.1229 19.2187 7.37089 25.0922 5.14766ZM8.70469 17.893C10.5257 19.1769 12.4512 20.3059 14.4609 21.268C12.6299 26.6558 11.7033 32.3096 11.7188 38H2.34375C2.34375 30.5234 4.70859 23.5977 8.70469 17.893Z" fill="#D4D5D6"/>
</svg>
