<svg width="64" height="79" viewBox="0 0 64 79" fill="none" xmlns="http://www.w3.org/2000/svg">
<path d="M31.9999 76.4999V43.1666M31.9999 76.4999L6.32492 58.1583C4.61242 56.9374 3.75825 56.3249 3.29575 55.4291C2.83325 54.5333 2.83325 53.4791 2.83325 51.3791V22.3333M31.9999 76.4999L57.6791 58.1583C59.3874 56.9374 60.2416 56.3249 60.7041 55.4291C61.1666 54.5333 61.1666 53.4791 61.1666 51.3791V22.3333M31.9999 43.1666L2.83325 22.3333M31.9999 43.1666L61.1666 22.3333M2.83325 22.3333L27.1583 4.95827C29.4916 3.2916 30.6666 2.4541 31.9999 2.4541C33.3333 2.4541 34.5041 3.28743 36.8416 4.95827L61.1666 22.3333" stroke="#D4D5D6" stroke-width="4" stroke-linejoin="round"/>
</svg>
