<svg width="67" height="66" viewBox="0 0 67 66" fill="none" xmlns="http://www.w3.org/2000/svg">
<path fill-rule="evenodd" clip-rule="evenodd" d="M5.51493 31.9852C5.51493 47.2052 16.5499 57.5752 28.9449 59.7202C29.2821 59.7786 29.6045 59.9029 29.8936 60.0859C30.1827 60.2689 30.433 60.5071 30.6301 60.7868C30.8272 61.0666 30.9673 61.3824 31.0423 61.7162C31.1173 62.0501 31.1259 62.3955 31.0674 62.7327C31.009 63.0698 30.8847 63.3922 30.7017 63.6813C30.5187 63.9705 30.2805 64.2207 30.0008 64.4178C29.721 64.6149 29.4052 64.755 29.0713 64.83C28.7375 64.9051 28.3921 64.9136 28.0549 64.8552C13.4999 62.3352 0.304932 50.0652 0.304932 31.9852C0.304932 24.3002 3.79993 18.2602 7.87993 13.6702C10.8049 10.3802 14.1499 7.70516 16.8399 5.66016H8.65993C7.99689 5.66016 7.36101 5.39676 6.89216 4.92792C6.42332 4.45908 6.15993 3.8232 6.15993 3.16016C6.15993 2.49712 6.42332 1.86123 6.89216 1.39239C7.36101 0.923549 7.99689 0.660156 8.65993 0.660156H23.6599C24.323 0.660156 24.9589 0.923549 25.4277 1.39239C25.8965 1.86123 26.1599 2.49712 26.1599 3.16016V18.1602C26.1599 18.8232 25.8965 19.4591 25.4277 19.9279C24.9589 20.3968 24.323 20.6602 23.6599 20.6602C22.9969 20.6602 22.361 20.3968 21.8922 19.9279C21.4233 19.4591 21.1599 18.8232 21.1599 18.1602V8.93016L21.1549 8.94016C18.2949 11.0902 14.8049 13.7252 11.7799 17.1302C8.20493 21.1502 5.51493 26.0152 5.51493 31.9852ZM61.0549 34.0102C61.0549 18.9502 50.2549 8.64516 38.0199 6.34516C37.6789 6.2873 37.3529 6.16211 37.0607 5.97689C36.7686 5.79167 36.5163 5.55014 36.3186 5.26638C36.1208 4.98262 35.9815 4.66232 35.9088 4.32416C35.8362 3.98599 35.8316 3.63675 35.8953 3.29679C35.9591 2.95684 36.0899 2.63298 36.2801 2.34411C36.4703 2.05524 36.7162 1.80715 37.0033 1.61431C37.2905 1.42147 37.6131 1.28774 37.9525 1.22093C38.2919 1.15411 38.6411 1.15555 38.9799 1.22516C53.3499 3.92516 66.2649 16.1252 66.2649 34.0102C66.2649 41.6952 62.7699 47.7302 58.6899 52.3252C55.7649 55.6152 52.4199 58.2902 49.7299 60.3352H57.9099C58.573 60.3352 59.2089 60.5985 59.6777 61.0674C60.1465 61.5362 60.4099 62.1721 60.4099 62.8352C60.4099 63.4982 60.1465 64.1341 59.6777 64.6029C59.2089 65.0718 58.573 65.3352 57.9099 65.3352H42.9099C42.2469 65.3352 41.611 65.0718 41.1422 64.6029C40.6733 64.1341 40.4099 63.4982 40.4099 62.8352V47.8352C40.4099 47.1721 40.6733 46.5362 41.1422 46.0674C41.611 45.5985 42.2469 45.3352 42.9099 45.3352C43.573 45.3352 44.2089 45.5985 44.6777 46.0674C45.1465 46.5362 45.4099 47.1721 45.4099 47.8352V57.0602H45.4199C48.2749 54.9002 51.7699 52.2702 54.7899 48.8602C58.3649 44.8452 61.0549 39.9852 61.0549 34.0102Z" fill="#D4D5D6"/>
</svg>
